####
#
# OBJ File Generated by Meshlab
#
####
# Object bunny_simplified1.obj
#
# Vertices: 52
# Faces: 100
#
####
vn 0.255281 -0.963882 -0.075916
v 0.473658 -0.992016 0.284540 0.749020 0.749020 0.749020
vn -0.013311 -0.999911 -0.001027
v -0.127830 -0.943961 0.146978 0.749020 0.749020 0.749020
vn -0.199465 0.142922 -0.969426
v -0.004617 0.892073 -0.280468 0.749020 0.749020 0.749020
vn 0.397511 0.771195 0.497236
v -0.468376 0.580168 0.194428 0.749020 0.749020 0.749020
vn 0.770027 0.577374 0.271472
v -0.606059 0.693664 -0.273693 0.749020 0.749020 0.749020
vn -0.373854 -0.058515 -0.925640
v -0.462857 0.537045 -0.038224 0.749020 0.749020 0.749020
vn -0.090244 0.279288 -0.955957
v -0.609887 0.419710 -0.086750 0.749020 0.749020 0.749020
vn 0.111219 -0.866939 -0.485847
v 0.274068 -0.947837 -0.269812 0.749020 0.749020 0.749020
vn -0.083370 0.240282 0.967116
v 0.006843 -0.245221 0.766330 0.749020 0.749020 0.749020
vn -0.361540 -0.238619 0.901305
v 0.012345 -0.772575 0.668199 0.749020 0.749020 0.749020
vn -0.239739 0.179575 0.954085
v -0.188186 -0.193712 0.595936 0.749020 0.749020 0.749020
vn 0.301117 -0.162760 0.939594
v 0.281623 -0.596604 0.760394 0.749020 0.749020 0.749020
vn -0.868115 -0.493581 0.052482
v -0.832936 -0.531591 0.163152 0.749020 0.749020 0.749020
vn -0.333559 -0.051551 0.941319
v -0.375683 -0.715705 0.495614 0.749020 0.749020 0.749020
vn 0.016534 0.991903 0.125920
v -0.098542 0.225177 0.234357 0.749020 0.749020 0.749020
vn 0.867441 -0.380259 0.320857
v 0.002381 0.661323 -0.115627 0.749020 0.749020 0.749020
vn 0.534064 0.786408 0.310382
v 0.510782 0.232076 0.351519 0.749020 0.749020 0.749020
vn 0.145522 0.172835 0.974141
v -0.524549 0.031043 0.548998 0.749020 0.749020 0.749020
vn 0.721631 -0.270946 0.637054
v 0.838572 -0.744835 0.394645 0.749020 0.749020 0.749020
vn 0.562412 0.295680 0.772183
v 0.601506 -0.218067 0.599432 0.749020 0.749020 0.749020
vn 0.763987 -0.495053 -0.413820
v -0.602736 0.677158 -0.722945 0.749020 0.749020 0.749020
vn -0.927494 0.112161 -0.356616
v -0.983397 0.118690 0.087533 0.749020 0.749020 0.749020
vn -0.838095 -0.425381 -0.341536
v -0.735395 0.552352 -0.343418 0.749020 0.749020 0.749020
vn 0.555853 -0.378295 -0.740216
v 0.528773 -0.756280 -0.270688 0.749020 0.749020 0.749020
vn -0.614815 -0.667961 0.419321
v -0.655712 -0.945118 0.527170 0.749020 0.749020 0.749020
vn -0.729794 0.682987 -0.030490
v -0.689948 0.876464 -0.647250 0.749020 0.749020 0.749020
vn 0.930563 0.354985 -0.089658
v 0.853244 -0.382828 0.152309 0.749020 0.749020 0.749020
vn -0.669289 0.737297 -0.091897
v -0.859319 0.566109 0.101212 0.749020 0.749020 0.749020
vn 0.650549 0.502355 0.569583
v -0.392232 0.261456 0.317636 0.749020 0.749020 0.749020
vn 0.562538 0.564229 -0.604315
v -0.440340 0.319337 0.062007 0.749020 0.749020 0.749020
vn -0.402885 0.027385 0.914841
v -0.127269 -0.658278 0.508176 0.749020 0.749020 0.749020
vn -0.068723 -0.885323 0.459870
v -0.191724 -0.958143 0.617261 0.749020 0.749020 0.749020
vn -0.050485 0.655556 0.753457
v 0.136184 0.089887 0.531391 0.749020 0.749020 0.749020
vn -0.274043 0.638453 0.719221
v -0.813911 0.410052 0.669130 0.749020 0.749020 0.749020
vn -0.706948 -0.278844 0.649978
v -0.970098 0.080330 0.581698 0.749020 0.749020 0.749020
vn -0.387878 -0.345008 -0.854705
v -0.134542 -0.813106 -0.337691 0.749020 0.749020 0.749020
vn 0.539269 0.249656 -0.804277
v 0.669782 -0.286865 -0.228402 0.749020 0.749020 0.749020
vn 0.761180 -0.549174 -0.344981
v 0.988688 -0.734954 0.026683 0.749020 0.749020 0.749020
vn -0.761357 0.157634 -0.628878
v -0.366358 -0.784037 -0.106448 0.749020 0.749020 0.749020
vn -0.167977 0.891226 0.421308
v -0.287106 0.798022 -0.035910 0.749020 0.749020 0.749020
vn -0.878526 -0.374244 -0.296873
v -0.466791 -0.771066 0.176015 0.749020 0.749020 0.749020
vn -0.665228 -0.377786 -0.644011
v -0.815818 -0.351244 -0.145473 0.749020 0.749020 0.749020
vn 0.375732 0.778221 -0.503188
v 0.459853 0.210547 -0.091780 0.749020 0.749020 0.749020
vn -0.225971 0.260257 -0.938724
v -0.607450 -0.001918 -0.180913 0.749020 0.749020 0.749020
vn 0.011149 0.584598 -0.811246
v -0.027405 -0.082628 -0.309427 0.749020 0.749020 0.749020
vn -0.451294 -0.151938 -0.879345
v -0.261323 -0.367749 -0.268202 0.749020 0.749020 0.749020
vn -0.914412 0.092305 -0.394119
v -0.732112 -0.949396 0.025654 0.749020 0.749020 0.749020
vn 0.063056 0.021109 -0.997787
v 0.089247 -0.432376 -0.489160 0.749020 0.749020 0.749020
vn 0.183420 -0.837683 0.514435
v 0.378443 -0.960257 0.549755 0.749020 0.749020 0.749020
vn -0.902214 -0.295631 0.314027
v -0.869238 -0.037626 0.416896 0.749020 0.749020 0.749020
vn -0.470324 -0.335565 0.816205
v -0.753578 -0.387751 0.540707 0.749020 0.749020 0.749020
vn -0.084754 -0.977989 -0.190667
v -0.386146 -0.970244 -0.057742 0.749020 0.749020 0.749020
# 52 vertices, 0 vertices normals

f 32//32 2//2 49//49
f 52//52 2//2 32//32
f 43//43 15//15 17//17
f 17//17 15//15 33//33
f 18//18 50//50 51//51
f 30//30 4//4 29//29
f 12//12 20//20 9//9
f 11//11 18//18 51//51
f 13//13 42//42 41//41
f 32//32 14//14 25//25
f 23//23 28//28 5//5
f 14//14 31//31 11//11
f 11//11 15//15 18//18
f 32//32 31//31 14//14
f 23//23 5//5 7//7
f 13//13 50//50 42//42
f 33//33 15//15 11//11
f 28//28 34//34 4//4
f 12//12 9//9 10//10
f 49//49 12//12 10//10
f 9//9 20//20 33//33
f 7//7 6//6 30//30
f 18//18 29//29 34//34
f 34//34 29//29 4//4
f 16//16 3//3 40//40
f 19//19 20//20 12//12
f 27//27 20//20 19//19
f 20//20 17//17 33//33
f 49//49 19//19 12//12
f 16//16 40//40 4//4
f 51//51 50//50 13//13
f 21//21 5//5 23//23
f 8//8 2//2 52//52
f 51//51 14//14 11//11
f 24//24 37//37 27//27
f 49//49 1//1 19//19
f 34//34 28//28 22//22
f 16//16 4//4 30//30
f 27//27 17//17 20//20
f 38//38 27//27 19//19
f 14//14 41//41 25//25
f 7//7 28//28 4//4
f 26//26 23//23 5//5
f 30//30 29//29 15//15
f 29//29 18//18 15//15
f 28//28 7//7 5//5
f 27//27 43//43 17//17
f 50//50 22//22 42//42
f 5//5 21//21 26//26
f 9//9 33//33 11//11
f 1//1 24//24 38//38
f 10//10 31//31 32//32
f 10//10 11//11 31//31
f 34//34 35//35 18//18
f 10//10 9//9 11//11
f 3//3 16//16 6//6
f 3//3 6//6 40//40
f 23//23 26//26 21//21
f 35//35 34//34 22//22
f 39//39 36//36 52//52
f 39//39 46//46 36//36
f 7//7 28//28 23//23
f 22//22 44//44 42//42
f 40//40 6//6 4//4
f 27//27 37//37 43//43
f 15//15 43//43 45//45
f 45//45 37//37 48//48
f 47//47 41//41 39//39
f 4//4 6//6 7//7
f 30//30 45//45 44//44
f 15//15 45//45 30//30
f 24//24 27//27 38//38
f 41//41 46//46 39//39
f 41//41 42//42 46//46
f 7//7 30//30 44//44
f 46//46 44//44 45//45
f 48//48 37//37 24//24
f 43//43 37//37 45//45
f 22//22 7//7 44//44
f 24//24 8//8 48//48
f 36//36 48//48 8//8
f 7//7 22//22 28//28
f 42//42 44//44 46//46
f 41//41 47//47 25//25
f 52//52 47//47 39//39
f 36//36 46//46 48//48
f 46//46 45//45 48//48
f 24//24 1//1 8//8
f 32//32 49//49 10//10
f 22//22 50//50 35//35
f 19//19 1//1 38//38
f 1//1 49//49 2//2
f 50//50 18//18 35//35
f 6//6 16//16 30//30
f 13//13 41//41 51//51
f 52//52 25//25 47//47
f 41//41 14//14 51//51
f 1//1 2//2 8//8
f 8//8 52//52 36//36
f 32//32 25//25 52//52
# 100 faces, 0 coords texture

# End of File