# Blender v2.76 (sub 0) OBJ File: ''
# www.blender.org
mtllib half_sphere_111.mtl
o Icosphere_Icosphere.002
v 0.276388 0.447220 0.850649
v -0.723607 0.447220 0.525725
v -0.723607 0.447220 -0.525725
v 0.276388 0.447220 -0.850649
v 0.894426 0.447216 0.000000
v 0.000000 1.000000 0.000000
v 0.951058 0.000000 0.309013
v 0.951058 0.000000 -0.309013
v 0.000000 0.000000 1.000000
v 0.587786 0.000000 0.809017
v -0.951058 0.000000 0.309013
v -0.587786 0.000000 0.809017
v -0.587786 0.000000 -0.809017
v -0.951058 0.000000 -0.309013
v 0.587786 0.000000 -0.809017
v 0.000000 0.000000 -1.000000
v 0.688189 0.525736 0.499997
v -0.262869 0.525738 0.809012
v -0.850648 0.525736 0.000000
v -0.262869 0.525738 -0.809012
v 0.688189 0.525736 -0.499997
v 0.162456 0.850654 0.499995
v 0.525730 0.850652 0.000000
v -0.425323 0.850654 0.309011
v -0.425323 0.850654 -0.309011
v 0.162456 0.850654 -0.499995
vn 0.276400 0.447200 0.850600
vn 0.688200 0.525700 0.500000
vn 0.162500 0.850600 0.500000
vn -0.723600 0.447200 0.525700
vn -0.262900 0.525700 0.809000
vn -0.425300 0.850600 0.309000
vn -0.723600 0.447200 -0.525700
vn -0.850600 0.525700 0.000000
vn -0.425300 0.850600 -0.309000
vn 0.276400 0.447200 -0.850600
vn -0.262900 0.525700 -0.809000
vn 0.162500 0.850600 -0.500000
vn 0.894400 0.447200 0.000000
vn 0.688200 0.525700 -0.500000
vn 0.525700 0.850600 0.000000
vn 0.000000 1.000000 0.000000
vn 0.922500 0.221700 -0.316000
vn 0.585600 0.221700 -0.779700
vn -0.015400 0.221700 -0.975000
vn -0.560600 0.221700 -0.797800
vn -0.932000 0.221700 -0.286600
vn -0.932000 0.221700 0.286600
vn -0.560600 0.221700 0.797800
vn -0.015400 0.221700 0.975000
vn 0.585600 0.221700 0.779700
vn 0.922500 0.221700 0.316000
usemtl None
s 1
f 1//1 17//2 22//3
f 2//4 18//5 24//6
f 3//7 19//8 25//9
f 4//10 20//11 26//12
f 5//13 21//14 23//15
f 23//15 26//12 6//16
f 23//15 21//14 26//12
f 21//14 4//10 26//12
f 26//12 25//9 6//16
f 26//12 20//11 25//9
f 20//11 3//7 25//9
f 25//9 24//6 6//16
f 25//9 19//8 24//6
f 19//8 2//4 24//6
f 24//6 22//3 6//16
f 24//6 18//5 22//3
f 18//5 1//1 22//3
f 22//3 23//15 6//16
f 22//3 17//2 23//15
f 17//2 5//13 23//15
f 8//17 21//14 5//13
f 8//17 15//18 21//14
f 15//18 4//10 21//14
f 16//19 20//11 4//10
f 16//19 13//20 20//11
f 13//20 3//7 20//11
f 14//21 19//8 3//7
f 14//21 11//22 19//8
f 11//22 2//4 19//8
f 12//23 18//5 2//4
f 12//23 9//24 18//5
f 9//24 1//1 18//5
f 10//25 17//2 1//1
f 10//25 7//26 17//2
f 7//26 5//13 17//2
f 15//18 16//19 4//10
f 13//20 14//21 3//7
f 11//22 12//23 2//4
f 9//24 10//25 1//1
f 7//26 8//17 5//13
